<svg data-name="Layer 1" xmlns="http://www.w3.org/2000/svg" viewBox="0 0 100 18.97"><path d="M19.1 1.24h.74v7.22a3.46 3.46 0 0 1 2.9-1.47 3.62 3.62 0 0 1 3.68 3.88 3.71 3.71 0 0 1-3.71 4 3.37 3.37 0 0 1-2.84-1.57v1.35h-.74zm6.62 9.63a3.06 3.06 0 0 0-2.93-3.19 2.94 2.94 0 0 0-3 3.21 3 3 0 0 0 3 3.27 3.06 3.06 0 0 0 2.93-3.29zM28.97 14.68h-.74V1.24h.74zM33.07 4.65a.67.67 0 0 1-1.33 0 .67.67 0 1 1 1.33 0zm-.31 10h-.73v-7.5h.73zM36.2 8.3a2.47 2.47 0 0 1 2.23-1.34c1.94 0 2.48 1.21 2.48 3.15v4.54h-.74v-4.51c0-1.36-.16-2.46-1.81-2.46-1.89 0-2.2 1.76-2.2 3.29v3.71h-.73V7.15h.73zM49.18 13.3a3.37 3.37 0 0 1-2.86 1.52 3.71 3.71 0 0 1-3.72-4 3.61 3.61 0 0 1 3.68-3.88 3.45 3.45 0 0 1 2.9 1.47V1.24h.73v13.44h-.73zm0-2.54a3 3 0 0 0-3-3.11 3.07 3.07 0 0 0-2.92 3.19 3.07 3.07 0 0 0 3 3.29c1.92.03 2.97-1.53 2.97-3.34zM55.58 8.52a1.42 1.42 0 0 0-1.32-.84 1.29 1.29 0 0 0-1.29 1.17c0 1.81 3.67.93 3.67 3.65a2.32 2.32 0 0 1-2.43 2.35 2.6 2.6 0 0 1-2.59-2l.72-.23a1.91 1.91 0 0 0 1.87 1.53 1.68 1.68 0 0 0 1.7-1.69c0-.93-.72-1.22-1.47-1.49-1-.37-2.2-.81-2.2-2.08a2 2 0 0 1 2.06-1.91 2.24 2.24 0 0 1 1.92 1.21zM65.67 14.3a5 5 0 0 1-.75 3.19 3.64 3.64 0 0 1-3 1.45 3.42 3.42 0 0 1-3.71-3.23h.73a2.75 2.75 0 0 0 2.92 2.59 2.82 2.82 0 0 0 2.41-1.13 4.81 4.81 0 0 0 .67-2.87v-.93a3.67 3.67 0 0 1-6.58-2.47 3.75 3.75 0 0 1 3.75-3.91 3.36 3.36 0 0 1 2.84 1.47V7.15h.73zm-6.62-3.46a3.08 3.08 0 0 0 3 3.29c1.92 0 3-1.56 3-3.37a3 3 0 0 0-3-3.11 3.07 3.07 0 0 0-3 3.22zM74.8 14.68h-.73V13.3a3.37 3.37 0 0 1-2.86 1.52 3.71 3.71 0 0 1-3.72-4 3.61 3.61 0 0 1 3.68-3.88 3.45 3.45 0 0 1 2.9 1.47V7.15h.73zm-6.62-3.81a3.07 3.07 0 0 0 3 3.29c1.92 0 3-1.56 3-3.37a3 3 0 0 0-3-3.11 3.07 3.07 0 0 0-3 3.19zM77.9 14.68h-.74V1.24h.74zM87.45 10.92a3.94 3.94 0 1 1-4-3.93 3.89 3.89 0 0 1 4 3.93zm-7.14 0a3.2 3.2 0 1 0 3.13-3.26 3.19 3.19 0 0 0-3.08 3.28zM89.81 8.13a1.73 1.73 0 0 1 1.63-1.14 2 2 0 0 1 .8.18l-.39.65a1.1 1.1 0 0 0-.52-.14c-1.65 0-1.55 2-1.55 3.16v3.84h-.73V7.15h.73zM93.46 10.98a2.94 2.94 0 0 0 3 3.18 3 3 0 0 0 2.65-1.71l.62.36a3.71 3.71 0 0 1-7-1.91 3.71 3.71 0 0 1 3.63-3.91 3.66 3.66 0 0 1 3.62 4zm5.8-.68a2.91 2.91 0 0 0-5.8 0zM3.9 15.02H.56a.54.54 0 0 1-.56-.55V.73C0 .56 0 .02.56.02h13.2a.56.56 0 0 1 .55.61v4.45l-3.95-2.73c-.6-.42-.65-.36-1.13 0S5.67 4.92 5.47 5.07s-.18.08-.18-.06V3.58c0-.16 0-.26-.18-.26H3.86c-.19 0-.19.08-.19.29v2.27c0 .38 0 .43-.11.58-.36.36-1.92 1.65-2 1.76s-.24.13-.1.31l1 1.3c.06.09.15 0 .35-.13l.55-.4c.13-.11.18-.12.2.09l.34 5.63z" fill="#5b8b5b"/><path d="M14.36 7.44s-4.13-2.65-4.42-2.82-.3-.09-.53 0-3.82 2.68-4 2.8-.15.06-.15.37.31 7.16.31 7.16h8.14c.52 0 .63-.34.63-.74l.02-6.77zm-7.71 1.5a3.25 3.25 0 0 1 .12-.37c0-.18.06-.17.25-.2s5.92-.55 6.11-.56.28 0 .14.21a5.25 5.25 0 0 0-.32.66c-.05.1-.05.12-.3.13l-5.83.2c-.19.01-.22.01-.2-.07zm0 1.73a3.56 3.56 0 0 1 .07-.37c0-.17.06-.17.25-.2s5.92-.54 6.11-.56.28 0 .14.21-.28.56-.33.66 0 .13-.3.13l-5.82.21c-.16 0-.19 0-.17-.08zM13.26 13a5.25 5.25 0 0 0-.32.66c-.05.1-.05.12-.3.13L6.81 14c-.16 0-.19 0-.17-.07a3.56 3.56 0 0 1 .12-.38c0-.18.06-.17.25-.2s5.92-.54 6.12-.56.23-.02.13.21zm0-1.62a6 6 0 0 0-.32.66c-.05.1-.05.12-.3.13l-5.83.21c-.16 0-.19 0-.17-.07a3.56 3.56 0 0 1 .12-.38c0-.18.06-.17.25-.2s5.92-.54 6.12-.56.23-.02.13.21z" fill="#5b8b5b"/></svg>